<svg width="208" height="45" viewBox="0 0 208 45" fill="none" xmlns="http://www.w3.org/2000/svg">
<path d="M208 22.5C208 10.0736 197.926 0 185.5 0H32C14.3269 0 0 14.3269 0 32V45H185.5C197.926 45 208 34.9264 208 22.5Z" fill="url(#paint0_linear_361_4793)"/>
<path d="M26.6074 14.7812H29.0879L32.7402 25.2207L36.3926 14.7812H38.873L33.7363 29H31.7441L26.6074 14.7812ZM25.2695 14.7812H27.7402L28.1895 24.957V29H25.2695V14.7812ZM37.7402 14.7812H40.2207V29H37.291V24.957L37.7402 14.7812ZM42.1641 23.8242V23.6191C42.1641 22.8444 42.2747 22.1315 42.4961 21.4805C42.7174 20.8229 43.0397 20.2533 43.4629 19.7715C43.8861 19.2897 44.4069 18.9154 45.0254 18.6484C45.6439 18.375 46.3535 18.2383 47.1543 18.2383C47.9551 18.2383 48.668 18.375 49.293 18.6484C49.918 18.9154 50.4421 19.2897 50.8652 19.7715C51.2949 20.2533 51.6204 20.8229 51.8418 21.4805C52.0632 22.1315 52.1738 22.8444 52.1738 23.6191V23.8242C52.1738 24.5924 52.0632 25.3053 51.8418 25.9629C51.6204 26.6139 51.2949 27.1836 50.8652 27.6719C50.4421 28.1536 49.9212 28.528 49.3027 28.7949C48.6842 29.0618 47.9746 29.1953 47.1738 29.1953C46.373 29.1953 45.6602 29.0618 45.0352 28.7949C44.4167 28.528 43.8926 28.1536 43.4629 27.6719C43.0397 27.1836 42.7174 26.6139 42.4961 25.9629C42.2747 25.3053 42.1641 24.5924 42.1641 23.8242ZM44.9766 23.6191V23.8242C44.9766 24.2669 45.0156 24.6803 45.0938 25.0645C45.1719 25.4486 45.2956 25.7871 45.4648 26.0801C45.6406 26.3665 45.8685 26.5911 46.1484 26.7539C46.4284 26.9167 46.7702 26.998 47.1738 26.998C47.5645 26.998 47.8997 26.9167 48.1797 26.7539C48.4596 26.5911 48.6842 26.3665 48.8535 26.0801C49.0228 25.7871 49.1465 25.4486 49.2246 25.0645C49.3092 24.6803 49.3516 24.2669 49.3516 23.8242V23.6191C49.3516 23.1895 49.3092 22.7858 49.2246 22.4082C49.1465 22.0241 49.0195 21.6855 48.8438 21.3926C48.6745 21.0931 48.4499 20.8587 48.1699 20.6895C47.89 20.5202 47.5514 20.4355 47.1543 20.4355C46.7572 20.4355 46.4186 20.5202 46.1387 20.6895C45.8652 20.8587 45.6406 21.0931 45.4648 21.3926C45.2956 21.6855 45.1719 22.0241 45.0938 22.4082C45.0156 22.7858 44.9766 23.1895 44.9766 23.6191ZM56.7148 20.6211V29H53.8926V18.4336H56.5391L56.7148 20.6211ZM56.3242 23.3457H55.543C55.543 22.61 55.6309 21.9329 55.8066 21.3145C55.9889 20.6895 56.2526 20.1491 56.5977 19.6934C56.9492 19.2311 57.3822 18.873 57.8965 18.6191C58.4108 18.3652 59.0065 18.2383 59.6836 18.2383C60.1523 18.2383 60.582 18.3099 60.9727 18.4531C61.3633 18.5898 61.6986 18.8079 61.9785 19.1074C62.265 19.4004 62.4863 19.7845 62.6426 20.2598C62.7988 20.7285 62.877 21.2917 62.877 21.9492V29H60.0645V22.2617C60.0645 21.7799 59.9993 21.4089 59.8691 21.1484C59.7389 20.888 59.5534 20.7057 59.3125 20.6016C59.0781 20.4974 58.7949 20.4453 58.4629 20.4453C58.0983 20.4453 57.7793 20.5202 57.5059 20.6699C57.2389 20.8197 57.0176 21.028 56.8418 21.2949C56.666 21.5553 56.5358 21.8613 56.4512 22.2129C56.3665 22.5645 56.3242 22.9421 56.3242 23.3457ZM62.6133 23.0234L61.6074 23.1504C61.6074 22.4603 61.6921 21.819 61.8613 21.2266C62.0371 20.6341 62.2943 20.1133 62.6328 19.6641C62.9779 19.2148 63.4043 18.8665 63.9121 18.6191C64.4199 18.3652 65.0059 18.2383 65.6699 18.2383C66.1777 18.2383 66.64 18.3132 67.0566 18.4629C67.4733 18.6061 67.8281 18.8372 68.1211 19.1562C68.4206 19.4688 68.6484 19.8789 68.8047 20.3867C68.9674 20.8945 69.0488 21.5163 69.0488 22.252V29H66.2266V22.252C66.2266 21.7637 66.1615 21.3926 66.0312 21.1387C65.9076 20.8783 65.7253 20.6992 65.4844 20.6016C65.25 20.4974 64.9701 20.4453 64.6445 20.4453C64.306 20.4453 64.0098 20.5137 63.7559 20.6504C63.502 20.7806 63.2904 20.9629 63.1211 21.1973C62.9518 21.4316 62.8249 21.7051 62.7402 22.0176C62.6556 22.3236 62.6133 22.6589 62.6133 23.0234ZM76.0898 29.1953C75.2695 29.1953 74.5339 29.0651 73.8828 28.8047C73.2318 28.5378 72.6784 28.1699 72.2227 27.7012C71.7734 27.2324 71.4284 26.6888 71.1875 26.0703C70.9466 25.4453 70.8262 24.7812 70.8262 24.0781V23.6875C70.8262 22.8867 70.9401 22.1543 71.168 21.4902C71.3958 20.8262 71.7214 20.25 72.1445 19.7617C72.5742 19.2734 73.0951 18.8991 73.707 18.6387C74.319 18.3717 75.0091 18.2383 75.7773 18.2383C76.526 18.2383 77.1901 18.362 77.7695 18.6094C78.349 18.8568 78.834 19.2083 79.2246 19.6641C79.6217 20.1198 79.9212 20.6667 80.123 21.3047C80.3249 21.9362 80.4258 22.6393 80.4258 23.4141V24.5859H72.0273V22.7109H77.6621V22.4961C77.6621 22.1055 77.5905 21.7572 77.4473 21.4512C77.3105 21.1387 77.1022 20.8913 76.8223 20.709C76.5423 20.5267 76.1842 20.4355 75.748 20.4355C75.377 20.4355 75.0579 20.5169 74.791 20.6797C74.5241 20.8424 74.306 21.0703 74.1367 21.3633C73.974 21.6562 73.8503 22.0013 73.7656 22.3984C73.6875 22.7891 73.6484 23.2188 73.6484 23.6875V24.0781C73.6484 24.5013 73.707 24.8919 73.8242 25.25C73.9479 25.6081 74.1204 25.9173 74.3418 26.1777C74.5697 26.4382 74.8431 26.64 75.1621 26.7832C75.4876 26.9264 75.8555 26.998 76.2656 26.998C76.7734 26.998 77.2454 26.9004 77.6816 26.7051C78.1243 26.5033 78.5052 26.2005 78.8242 25.7969L80.1914 27.2812C79.9701 27.6003 79.6673 27.9062 79.2832 28.1992C78.9056 28.4922 78.4499 28.7331 77.916 28.9219C77.3822 29.1042 76.7734 29.1953 76.0898 29.1953ZM84.7812 20.6895V29H81.9688V18.4336H84.6055L84.7812 20.6895ZM84.3711 23.3457H83.6094C83.6094 22.5645 83.7103 21.8613 83.9121 21.2363C84.1139 20.6048 84.3971 20.0677 84.7617 19.625C85.1263 19.1758 85.5592 18.834 86.0605 18.5996C86.5684 18.3587 87.1348 18.2383 87.7598 18.2383C88.2546 18.2383 88.707 18.3099 89.1172 18.4531C89.5273 18.5964 89.8789 18.8242 90.1719 19.1367C90.4714 19.4492 90.6992 19.8626 90.8555 20.377C91.0182 20.8913 91.0996 21.5195 91.0996 22.2617V29H88.2676V22.252C88.2676 21.7832 88.2025 21.4186 88.0723 21.1582C87.9421 20.8978 87.75 20.7155 87.4961 20.6113C87.2487 20.5007 86.9427 20.4453 86.5781 20.4453C86.2005 20.4453 85.8717 20.5202 85.5918 20.6699C85.3184 20.8197 85.0905 21.028 84.9082 21.2949C84.7324 21.5553 84.599 21.8613 84.5078 22.2129C84.4167 22.5645 84.3711 22.9421 84.3711 23.3457ZM98.4141 18.4336V20.4258H92.2617V18.4336H98.4141ZM93.7852 15.8262H96.5977V25.8164C96.5977 26.1224 96.6367 26.3568 96.7148 26.5195C96.7995 26.6823 96.9232 26.7962 97.0859 26.8613C97.2487 26.9199 97.4538 26.9492 97.7012 26.9492C97.877 26.9492 98.0332 26.9427 98.1699 26.9297C98.3132 26.9102 98.4336 26.8906 98.5312 26.8711L98.541 28.9414C98.3001 29.0195 98.0397 29.0814 97.7598 29.127C97.4798 29.1725 97.1706 29.1953 96.832 29.1953C96.2135 29.1953 95.6732 29.0944 95.2109 28.8926C94.7552 28.6842 94.4036 28.3522 94.1562 27.8965C93.9089 27.4408 93.7852 26.8418 93.7852 26.0996V15.8262ZM111.236 26.6953V14H114.068V29H111.52L111.236 26.6953ZM104.557 23.8438V23.6387C104.557 22.8314 104.648 22.099 104.83 21.4414C105.012 20.7773 105.279 20.2077 105.631 19.7324C105.982 19.2572 106.415 18.8893 106.93 18.6289C107.444 18.3685 108.03 18.2383 108.688 18.2383C109.306 18.2383 109.846 18.3685 110.309 18.6289C110.777 18.8893 111.174 19.2604 111.5 19.7422C111.832 20.2174 112.099 20.7806 112.301 21.4316C112.503 22.0762 112.649 22.7826 112.74 23.5508V24C112.649 24.7357 112.503 25.4193 112.301 26.0508C112.099 26.6823 111.832 27.2357 111.5 27.7109C111.174 28.1797 110.777 28.5443 110.309 28.8047C109.84 29.0651 109.293 29.1953 108.668 29.1953C108.01 29.1953 107.424 29.0618 106.91 28.7949C106.402 28.528 105.973 28.1536 105.621 27.6719C105.276 27.1901 105.012 26.6237 104.83 25.9727C104.648 25.3216 104.557 24.612 104.557 23.8438ZM107.369 23.6387V23.8438C107.369 24.2799 107.402 24.6868 107.467 25.0645C107.538 25.4421 107.652 25.7773 107.809 26.0703C107.971 26.3568 108.18 26.5814 108.434 26.7441C108.694 26.9004 109.01 26.9785 109.381 26.9785C109.863 26.9785 110.26 26.8711 110.572 26.6562C110.885 26.4349 111.122 26.1322 111.285 25.748C111.454 25.3639 111.552 24.9212 111.578 24.4199V23.1406C111.559 22.7305 111.5 22.3626 111.402 22.0371C111.311 21.7051 111.174 21.4219 110.992 21.1875C110.816 20.9531 110.595 20.7708 110.328 20.6406C110.068 20.5104 109.758 20.4453 109.4 20.4453C109.036 20.4453 108.723 20.5299 108.463 20.6992C108.202 20.862 107.991 21.0866 107.828 21.373C107.672 21.6595 107.555 21.998 107.477 22.3887C107.405 22.7728 107.369 23.1895 107.369 23.6387ZM121.129 29.1953C120.309 29.1953 119.573 29.0651 118.922 28.8047C118.271 28.5378 117.717 28.1699 117.262 27.7012C116.812 27.2324 116.467 26.6888 116.227 26.0703C115.986 25.4453 115.865 24.7812 115.865 24.0781V23.6875C115.865 22.8867 115.979 22.1543 116.207 21.4902C116.435 20.8262 116.76 20.25 117.184 19.7617C117.613 19.2734 118.134 18.8991 118.746 18.6387C119.358 18.3717 120.048 18.2383 120.816 18.2383C121.565 18.2383 122.229 18.362 122.809 18.6094C123.388 18.8568 123.873 19.2083 124.264 19.6641C124.661 20.1198 124.96 20.6667 125.162 21.3047C125.364 21.9362 125.465 22.6393 125.465 23.4141V24.5859H117.066V22.7109H122.701V22.4961C122.701 22.1055 122.63 21.7572 122.486 21.4512C122.35 21.1387 122.141 20.8913 121.861 20.709C121.581 20.5267 121.223 20.4355 120.787 20.4355C120.416 20.4355 120.097 20.5169 119.83 20.6797C119.563 20.8424 119.345 21.0703 119.176 21.3633C119.013 21.6562 118.889 22.0013 118.805 22.3984C118.727 22.7891 118.688 23.2188 118.688 23.6875V24.0781C118.688 24.5013 118.746 24.8919 118.863 25.25C118.987 25.6081 119.16 25.9173 119.381 26.1777C119.609 26.4382 119.882 26.64 120.201 26.7832C120.527 26.9264 120.895 26.998 121.305 26.998C121.812 26.998 122.285 26.9004 122.721 26.7051C123.163 26.5033 123.544 26.2005 123.863 25.7969L125.23 27.2812C125.009 27.6003 124.706 27.9062 124.322 28.1992C123.945 28.4922 123.489 28.7331 122.955 28.9219C122.421 29.1042 121.812 29.1953 121.129 29.1953ZM132.242 18.4336V20.4258H126.09V18.4336H132.242ZM127.613 15.8262H130.426V25.8164C130.426 26.1224 130.465 26.3568 130.543 26.5195C130.628 26.6823 130.751 26.7962 130.914 26.8613C131.077 26.9199 131.282 26.9492 131.529 26.9492C131.705 26.9492 131.861 26.9427 131.998 26.9297C132.141 26.9102 132.262 26.8906 132.359 26.8711L132.369 28.9414C132.128 29.0195 131.868 29.0814 131.588 29.127C131.308 29.1725 130.999 29.1953 130.66 29.1953C130.042 29.1953 129.501 29.0944 129.039 28.8926C128.583 28.6842 128.232 28.3522 127.984 27.8965C127.737 27.4408 127.613 26.8418 127.613 26.0996V15.8262ZM138.707 29.1953C137.887 29.1953 137.151 29.0651 136.5 28.8047C135.849 28.5378 135.296 28.1699 134.84 27.7012C134.391 27.2324 134.046 26.6888 133.805 26.0703C133.564 25.4453 133.443 24.7812 133.443 24.0781V23.6875C133.443 22.8867 133.557 22.1543 133.785 21.4902C134.013 20.8262 134.339 20.25 134.762 19.7617C135.191 19.2734 135.712 18.8991 136.324 18.6387C136.936 18.3717 137.626 18.2383 138.395 18.2383C139.143 18.2383 139.807 18.362 140.387 18.6094C140.966 18.8568 141.451 19.2083 141.842 19.6641C142.239 20.1198 142.538 20.6667 142.74 21.3047C142.942 21.9362 143.043 22.6393 143.043 23.4141V24.5859H134.645V22.7109H140.279V22.4961C140.279 22.1055 140.208 21.7572 140.064 21.4512C139.928 21.1387 139.719 20.8913 139.439 20.709C139.16 20.5267 138.801 20.4355 138.365 20.4355C137.994 20.4355 137.675 20.5169 137.408 20.6797C137.141 20.8424 136.923 21.0703 136.754 21.3633C136.591 21.6562 136.467 22.0013 136.383 22.3984C136.305 22.7891 136.266 23.2188 136.266 23.6875V24.0781C136.266 24.5013 136.324 24.8919 136.441 25.25C136.565 25.6081 136.738 25.9173 136.959 26.1777C137.187 26.4382 137.46 26.64 137.779 26.7832C138.105 26.9264 138.473 26.998 138.883 26.998C139.391 26.998 139.863 26.9004 140.299 26.7051C140.742 26.5033 141.122 26.2005 141.441 25.7969L142.809 27.2812C142.587 27.6003 142.285 27.9062 141.9 28.1992C141.523 28.4922 141.067 28.7331 140.533 28.9219C139.999 29.1042 139.391 29.1953 138.707 29.1953ZM149.01 26.998C149.355 26.998 149.661 26.9329 149.928 26.8027C150.195 26.666 150.403 26.4772 150.553 26.2363C150.709 25.9889 150.79 25.6992 150.797 25.3672H153.443C153.437 26.1094 153.238 26.7702 152.848 27.3496C152.457 27.9225 151.933 28.375 151.275 28.707C150.618 29.0326 149.882 29.1953 149.068 29.1953C148.248 29.1953 147.532 29.0586 146.92 28.7852C146.314 28.5117 145.81 28.1341 145.406 27.6523C145.003 27.1641 144.7 26.5977 144.498 25.9531C144.296 25.3021 144.195 24.6055 144.195 23.8633V23.5801C144.195 22.8314 144.296 22.1348 144.498 21.4902C144.7 20.8392 145.003 20.2728 145.406 19.791C145.81 19.3027 146.314 18.9219 146.92 18.6484C147.525 18.375 148.235 18.2383 149.049 18.2383C149.915 18.2383 150.673 18.4043 151.324 18.7363C151.982 19.0684 152.496 19.5436 152.867 20.1621C153.245 20.7741 153.437 21.5 153.443 22.3398H150.797C150.79 21.9883 150.715 21.6693 150.572 21.3828C150.436 21.0964 150.234 20.8685 149.967 20.6992C149.706 20.5234 149.384 20.4355 149 20.4355C148.59 20.4355 148.255 20.5234 147.994 20.6992C147.734 20.8685 147.532 21.1029 147.389 21.4023C147.245 21.6953 147.145 22.0306 147.086 22.4082C147.034 22.7793 147.008 23.1699 147.008 23.5801V23.8633C147.008 24.2734 147.034 24.6673 147.086 25.0449C147.138 25.4225 147.236 25.7578 147.379 26.0508C147.529 26.3438 147.734 26.5749 147.994 26.7441C148.255 26.9134 148.593 26.998 149.01 26.998ZM160.25 18.4336V20.4258H154.098V18.4336H160.25ZM155.621 15.8262H158.434V25.8164C158.434 26.1224 158.473 26.3568 158.551 26.5195C158.635 26.6823 158.759 26.7962 158.922 26.8613C159.085 26.9199 159.29 26.9492 159.537 26.9492C159.713 26.9492 159.869 26.9427 160.006 26.9297C160.149 26.9102 160.27 26.8906 160.367 26.8711L160.377 28.9414C160.136 29.0195 159.876 29.0814 159.596 29.127C159.316 29.1725 159.007 29.1953 158.668 29.1953C158.049 29.1953 157.509 29.0944 157.047 28.8926C156.591 28.6842 156.24 28.3522 155.992 27.8965C155.745 27.4408 155.621 26.8418 155.621 26.0996V15.8262ZM166.715 29.1953C165.895 29.1953 165.159 29.0651 164.508 28.8047C163.857 28.5378 163.303 28.1699 162.848 27.7012C162.398 27.2324 162.053 26.6888 161.812 26.0703C161.572 25.4453 161.451 24.7812 161.451 24.0781V23.6875C161.451 22.8867 161.565 22.1543 161.793 21.4902C162.021 20.8262 162.346 20.25 162.77 19.7617C163.199 19.2734 163.72 18.8991 164.332 18.6387C164.944 18.3717 165.634 18.2383 166.402 18.2383C167.151 18.2383 167.815 18.362 168.395 18.6094C168.974 18.8568 169.459 19.2083 169.85 19.6641C170.247 20.1198 170.546 20.6667 170.748 21.3047C170.95 21.9362 171.051 22.6393 171.051 23.4141V24.5859H162.652V22.7109H168.287V22.4961C168.287 22.1055 168.215 21.7572 168.072 21.4512C167.936 21.1387 167.727 20.8913 167.447 20.709C167.167 20.5267 166.809 20.4355 166.373 20.4355C166.002 20.4355 165.683 20.5169 165.416 20.6797C165.149 20.8424 164.931 21.0703 164.762 21.3633C164.599 21.6562 164.475 22.0013 164.391 22.3984C164.312 22.7891 164.273 23.2188 164.273 23.6875V24.0781C164.273 24.5013 164.332 24.8919 164.449 25.25C164.573 25.6081 164.745 25.9173 164.967 26.1777C165.195 26.4382 165.468 26.64 165.787 26.7832C166.113 26.9264 166.48 26.998 166.891 26.998C167.398 26.998 167.87 26.9004 168.307 26.7051C168.749 26.5033 169.13 26.2005 169.449 25.7969L170.816 27.2812C170.595 27.6003 170.292 27.9062 169.908 28.1992C169.531 28.4922 169.075 28.7331 168.541 28.9219C168.007 29.1042 167.398 29.1953 166.715 29.1953ZM178.893 26.6953V14H181.725V29H179.176L178.893 26.6953ZM172.213 23.8438V23.6387C172.213 22.8314 172.304 22.099 172.486 21.4414C172.669 20.7773 172.936 20.2077 173.287 19.7324C173.639 19.2572 174.072 18.8893 174.586 18.6289C175.1 18.3685 175.686 18.2383 176.344 18.2383C176.962 18.2383 177.503 18.3685 177.965 18.6289C178.434 18.8893 178.831 19.2604 179.156 19.7422C179.488 20.2174 179.755 20.7806 179.957 21.4316C180.159 22.0762 180.305 22.7826 180.396 23.5508V24C180.305 24.7357 180.159 25.4193 179.957 26.0508C179.755 26.6823 179.488 27.2357 179.156 27.7109C178.831 28.1797 178.434 28.5443 177.965 28.8047C177.496 29.0651 176.949 29.1953 176.324 29.1953C175.667 29.1953 175.081 29.0618 174.566 28.7949C174.059 28.528 173.629 28.1536 173.277 27.6719C172.932 27.1901 172.669 26.6237 172.486 25.9727C172.304 25.3216 172.213 24.612 172.213 23.8438ZM175.025 23.6387V23.8438C175.025 24.2799 175.058 24.6868 175.123 25.0645C175.195 25.4421 175.309 25.7773 175.465 26.0703C175.628 26.3568 175.836 26.5814 176.09 26.7441C176.35 26.9004 176.666 26.9785 177.037 26.9785C177.519 26.9785 177.916 26.8711 178.229 26.6562C178.541 26.4349 178.779 26.1322 178.941 25.748C179.111 25.3639 179.208 24.9212 179.234 24.4199V23.1406C179.215 22.7305 179.156 22.3626 179.059 22.0371C178.967 21.7051 178.831 21.4219 178.648 21.1875C178.473 20.9531 178.251 20.7708 177.984 20.6406C177.724 20.5104 177.415 20.4453 177.057 20.4453C176.692 20.4453 176.38 20.5299 176.119 20.6992C175.859 20.862 175.647 21.0866 175.484 21.373C175.328 21.6595 175.211 21.998 175.133 22.3887C175.061 22.7728 175.025 23.1895 175.025 23.6387Z" fill="white"/>
<defs>
<linearGradient id="paint0_linear_361_4793" x1="208" y1="22.5" x2="0" y2="22.5" gradientUnits="userSpaceOnUse">
<stop stop-color="#5C755E"/>
<stop offset="1" stop-color="#78A67C"/>
</linearGradient>
</defs>
</svg>
